# xmcd
#
# Track frame offsets:
#	150
#	16033
#	37261
#	52063
#	68010
#	82480
#	111804
#	125660
#	140726
#	151975
#	164351
#	174805
#	187401
#	202360
#
# Disc length: 3015 seconds
# Revision: 0
# Processed by: cddbd v1.5.2PL0 Copyright (c) Steve Scherf et al.
# Submitted via: dBpowerAMP V12.0
#
DISCID=d60bc50e
DTITLE=Chet Atkins And Les Paul - Chester and Lester
DYEAR=1976
DGENRE=Country
TTITLE0=It's Been A Long, Long Time
TTITLE1=Medley: Moonglow - Picnic (Theme From "Picnic")
TTITLE2=Caravan
TTITLE3=It Had To Be You
TTITLE4=Out Of Nowhere
TTITLE5=Avalon
TTITLE6=Birth Of The Blues
TTITLE7=Someday Sweetheart
TTITLE8=Deed I Do
TTITLE9=Lover Come Back To Me
TTITLE10=The World Is Waiting For The Sunrise
TTITLE11=You Brought A New Kind Of Love To Me
TTITLE12=Caravan (Alternate Version)
TTITLE13=Medley: Moonglow - Picnic (Theme From "Picnic") (Rehearsal Version)
EXTD=
EXTT0=
EXTT1=
EXTT2=
EXTT3=
EXTT4=
EXTT5=
EXTT6=
EXTT7=
EXTT8=
EXTT9=
EXTT10=
EXTT11=
EXTT12=
EXTT13=
PLAYORDER=
